<svg width="30" height="30" viewBox="0 0 30 30" fill="none" xmlns="http://www.w3.org/2000/svg">
<g clip-path="url(#clip0_5292_11618)">
<path d="M10.6426 17.5254C10.7618 17.7241 10.8908 17.9176 11.0296 18.1059C10.8916 17.9176 10.7618 17.7249 10.6426 17.5254Z" fill="#3182F6"/>
<path d="M14.7816 20.8174L11.7891 23.8106C12.3748 23.2249 13.3243 23.2249 13.9101 23.8106C14.4958 24.3964 14.4958 25.3466 13.9101 25.9316L18.2308 21.6101C18.4356 21.4054 18.6231 21.1879 18.8008 20.9644C18.2376 21.0979 17.6578 21.1744 17.0646 21.1744C16.2778 21.1744 15.5106 21.0499 14.7816 20.8174Z" fill="#0A37C7"/>
<path d="M19.4544 12.6348C19.8294 13.3458 19.5812 14.2315 18.8777 14.635C18.1592 15.0475 17.2419 14.7985 16.8302 14.08C16.8167 14.0568 16.7994 14.0358 16.7852 14.0125C17.1992 14.7018 17.4249 15.49 17.4249 16.315C17.4249 16.9675 17.2824 17.596 17.0199 18.1728C17.0349 18.1728 17.0499 18.175 17.0649 18.175C18.2642 18.175 19.3914 17.7085 20.2389 16.8603L20.4062 16.6938C20.4122 16.5678 20.4249 16.4425 20.4249 16.3158C20.4249 15.004 20.0844 13.7455 19.4544 12.6348Z" fill="#0A37C7"/>
<path d="M13.9102 23.8104C13.3245 23.2247 12.375 23.2247 11.7892 23.8104C10.0395 25.5594 7.19097 25.5602 5.43972 23.8104C3.68997 22.0599 3.68997 19.2114 5.43972 17.4609L9.59397 13.3074L9.76122 13.1409C10.6095 12.2927 11.7367 11.8262 12.9352 11.8262C12.9502 11.8262 12.9652 11.8284 12.9802 11.8284C14.1622 11.8404 15.2715 12.3039 16.1092 13.1409C16.2375 13.2692 16.3545 13.4064 16.4655 13.5474C16.4955 13.5857 16.5225 13.6239 16.551 13.6629C16.6342 13.7762 16.7122 13.8932 16.7842 14.0124C16.7977 14.0357 16.8157 14.0567 16.8292 14.0799C17.2417 14.7984 18.1582 15.0474 18.8767 14.6349C19.5795 14.2314 19.8285 13.3457 19.4535 12.6347C19.4452 12.6189 19.4407 12.6024 19.4325 12.5867C19.41 12.5477 19.3815 12.5139 19.3582 12.4757C19.239 12.2762 19.1092 12.0819 18.9705 11.8937C18.921 11.8262 18.873 11.7587 18.8212 11.6927C18.6367 11.4587 18.4425 11.2314 18.2302 11.0192C17.3722 10.1612 16.3417 9.54092 15.2182 9.18317C14.4892 8.95067 13.722 8.82617 12.9352 8.82617C12.342 8.82617 11.7622 8.90267 11.199 9.03617C9.86322 9.35192 8.63472 10.0247 7.64022 11.0199L3.31872 15.3407C0.398969 18.2612 0.398969 23.0124 3.31872 25.9322C4.77897 27.3917 6.69672 28.1222 8.61522 28.1222C10.5337 28.1222 12.45 27.3917 13.911 25.9322C14.4967 25.3472 14.4967 24.3969 13.911 23.8112L13.9102 23.8104Z" fill="#185DEE"/>
<path d="M26.6856 14.6626L22.3581 18.9826C21.3681 19.9726 20.1381 20.6476 18.8031 20.9626C18.2406 21.0976 17.6556 21.1726 17.0631 21.1726C16.2756 21.1726 15.5106 21.0526 14.7831 20.8201C14.2956 20.6626 13.8231 20.4526 13.3731 20.1976C13.3281 20.1676 13.2756 20.1376 13.2231 20.1076C13.0281 19.9876 12.8331 19.8601 12.6381 19.7176C12.5781 19.6726 12.5106 19.6201 12.4431 19.5751C12.2106 19.3876 11.9856 19.1926 11.7681 18.9826C11.5581 18.7651 11.3631 18.5401 11.1756 18.3076C11.1306 18.2401 11.0781 18.1726 11.0256 18.1051C10.8906 17.9176 10.7631 17.7226 10.6431 17.5276C10.6206 17.4901 10.5906 17.4526 10.5681 17.4151C10.5606 17.4001 10.5531 17.3776 10.5456 17.3626C9.91562 16.2526 9.57812 15.0001 9.57812 13.6876C9.57812 13.5601 9.58562 13.4326 9.59312 13.3051L9.75812 13.1401C10.6131 12.2926 11.7381 11.8276 12.9381 11.8276H12.9831C12.7206 12.4051 12.5781 13.0351 12.5781 13.6876C12.5781 14.5126 12.8031 15.3001 13.2156 15.9901C13.2906 16.1101 13.3656 16.2226 13.4481 16.3351C13.4781 16.3801 13.5081 16.4176 13.5381 16.4551C13.6431 16.5976 13.7631 16.7326 13.8906 16.8601C14.0181 16.9876 14.1531 17.1076 14.2956 17.2126C14.3331 17.2426 14.3706 17.2726 14.4156 17.3026C14.5281 17.3851 14.6406 17.4601 14.7606 17.5351C15.4431 17.9401 16.2081 18.1651 17.0181 18.1726H17.0631C18.2631 18.1726 19.3881 17.7076 20.2431 16.8601L20.4081 16.6951L24.5631 12.5401C26.3106 10.7851 26.3106 7.94258 24.5631 6.18758C22.8081 4.44008 19.9656 4.44008 18.2106 6.18758L16.9506 7.45508L16.1556 8.25008L15.2181 9.18008C14.4906 8.94758 13.7256 8.82758 12.9381 8.82758C12.3456 8.82758 11.7606 8.90258 11.1981 9.03758C11.3781 8.81258 11.5656 8.59508 11.7681 8.39258L14.0331 6.12758L16.0881 4.06508C19.0056 1.14758 23.7606 1.14758 26.6856 4.06508C29.6031 6.99008 29.6031 11.7376 26.6856 14.6626Z" fill="#3182F6"/>
</g>
<defs>
<clipPath id="clip0_5292_11618">
<rect width="30" height="30" fill="white"/>
</clipPath>
</defs>
</svg>
