<svg width="30" height="30" viewBox="0 0 30 30" fill="none" xmlns="http://www.w3.org/2000/svg">
<g clip-path="url(#clip0_5292_11646)">
<path d="M11.5996 14.3729C11.5996 14.3729 13.0494 3.84214 18.5431 2.81089C18.5431 2.81089 20.3746 1.14139 23.3611 2.16739C26.3476 3.19414 28.1394 6.09214 28.4281 8.40739C28.6434 10.1324 28.4409 13.6311 27.4464 17.5094C27.3309 17.9594 26.9919 18.3186 26.5501 18.4641C25.5871 18.7821 23.4781 18.9861 18.9954 17.9481C11.6431 16.2456 11.5996 14.3729 11.5996 14.3729Z" fill="#FF8F00"/>
<path d="M11.8712 6.75932C11.4437 6.47807 10.8685 6.59657 10.5872 7.02407L9.57997 8.10782L9.32647 6.87857L8.72647 3.35357V3.35282C8.65147 2.91257 8.24197 2.61557 7.81147 2.68907C7.38097 2.76257 7.09297 3.17807 7.16797 3.61832L7.68397 6.65132L7.29247 6.73232L6.45172 3.27182C6.34672 2.83832 5.91697 2.57057 5.49322 2.67332C5.06872 2.77607 4.81072 3.21107 4.91572 3.64532L5.74822 7.07207L5.42722 7.23032L4.29847 4.38707C4.13722 3.98057 3.67747 3.78182 3.27172 3.94307C2.86597 4.10432 2.66797 4.56407 2.82922 4.97057L4.00447 7.93082L3.61147 8.12432L2.62597 6.07232C2.43247 5.66882 1.95622 5.49482 1.56247 5.68382C1.16872 5.87282 1.00747 6.35282 1.20097 6.75632L3.05497 10.6166L3.06172 10.6121C3.69697 12.3941 5.55997 13.4838 7.46572 13.0908C8.50822 12.8756 9.36472 12.2583 9.90697 11.4341L12.1375 8.04482C12.4187 7.61732 12.3002 7.04207 11.8727 6.76082L11.8712 6.75932Z" fill="#FFC74D"/>
<path d="M20.5587 18.5891L20.5107 18.8681C20.3652 19.7118 19.5634 20.2781 18.7189 20.1326C17.8752 19.9871 17.3089 19.1846 17.4544 18.3408L17.5024 18.0626C17.1274 18.0326 16.7494 18.0071 16.3602 17.9996L15.8434 17.9516C11.3674 17.2736 10.6707 13.1778 10.5379 11.8496C10.5177 11.6471 10.3467 11.4978 10.1434 11.5031L3.42868 11.6636C3.21043 11.6688 3.03343 11.8503 3.04768 12.0678C3.26893 15.3566 5.38468 20.8046 10.6362 23.4461C10.7427 23.5001 10.8124 23.6073 10.8132 23.7266L10.8484 27.7938C10.8499 27.9716 10.9939 28.1141 11.1717 28.1141H28.7382C28.7382 23.6538 25.6182 19.9728 20.5572 18.5898L20.5587 18.5891Z" fill="#482EC4"/>
<path d="M23.4536 9.24269C20.8466 8.21594 19.5048 6.02144 19.0938 5.23694C19.0383 5.13044 18.8846 5.13569 18.8366 5.24669C18.5396 5.93219 17.6531 7.64444 15.8673 8.62169C15.8673 8.62169 15.5748 8.75369 15.2103 9.06269C14.6748 9.51644 14.3523 10.1779 14.3118 10.8784C14.1356 13.9414 16.0803 16.7472 19.0428 17.4334C21.8276 18.0784 24.6281 16.6452 25.9406 14.1222C26.7461 12.2089 25.9346 10.2207 23.4521 9.24344L23.4536 9.24269Z" fill="#FFC74D"/>
<path d="M18.7182 20.1322C19.5619 20.2777 20.3637 19.7114 20.5099 18.8677L20.5579 18.5887L20.7889 17.2499L17.7334 16.7227L17.5024 18.0614L17.4544 18.3397C17.3089 19.1834 17.8752 19.9859 18.7189 20.1314L18.7182 20.1322Z" fill="#FFC74D"/>
<path d="M19.4106 10.6458C19.5135 10.2015 19.2966 9.77181 18.9261 9.68603C18.5557 9.60025 18.172 9.89089 18.0691 10.3352C17.9662 10.7795 18.1831 11.2092 18.5536 11.295C18.924 11.3807 19.3077 11.0901 19.4106 10.6458Z" fill="black"/>
<path d="M22.9516 11.4642C23.0545 11.0199 22.8376 10.5902 22.4671 10.5044C22.0967 10.4186 21.713 10.7092 21.6101 11.1535C21.5072 11.5978 21.7241 12.0275 22.0946 12.1133C22.465 12.1991 22.8487 11.9085 22.9516 11.4642Z" fill="black"/>
<path d="M20.5288 14.6507C20.6773 14.6852 20.75 14.8524 20.6773 14.9867C20.4463 15.4134 19.9513 15.6519 19.4555 15.5372C18.9598 15.4224 18.62 14.9912 18.5998 14.5059C18.5938 14.3537 18.7325 14.2352 18.881 14.2697L20.5288 14.6507Z" fill="#5C2F17"/>
</g>
<defs>
<clipPath id="clip0_5292_11646">
<rect width="30" height="30" fill="white"/>
</clipPath>
</defs>
</svg>
