<svg width="101" height="100" viewBox="0 0 101 100" fill="none" xmlns="http://www.w3.org/2000/svg">
<g clip-path="url(#clip0_5150_2736)">
<path d="M82.96 19.8525H18.0425C14.1075 19.8525 10.9175 23.0425 10.9175 26.9775V62.7275C10.9175 66.6626 14.1075 69.8525 18.0425 69.8525H82.96C86.895 69.8525 90.085 66.6626 90.085 62.7275V26.9775C90.085 23.0425 86.895 19.8525 82.96 19.8525Z" fill="#D0D5DA"/>
<path fill-rule="evenodd" clip-rule="evenodd" d="M50.9175 19.8525H80.3825V15.15C80.3825 12.3875 78.145 10.15 75.3825 10.15H55.9175C53.155 10.15 50.9175 12.3875 50.9175 15.15V19.8525Z" fill="#3182F6"/>
<path d="M82.96 27.3525H18.0425C14.1075 27.3525 10.9175 30.5425 10.9175 34.4775V70.2275C10.9175 74.1626 14.1075 77.3525 18.0425 77.3525H82.96C86.895 77.3525 90.085 74.1626 90.085 70.2275V34.4775C90.085 30.5425 86.895 27.3525 82.96 27.3525Z" fill="#E5E9EE"/>
<path fill-rule="evenodd" clip-rule="evenodd" d="M30.9175 27.3525H60.3825V22.65C60.3825 19.8875 58.145 17.65 55.3825 17.65H35.9175C33.155 17.65 30.9175 19.8875 30.9175 22.65V27.3525Z" fill="#00BC79"/>
<path fill-rule="evenodd" clip-rule="evenodd" d="M10.9175 34.8525V80.2275C10.9175 84.1625 14.1075 87.3525 18.0425 87.3525H82.96C86.895 87.3525 90.085 84.1625 90.085 80.2275V41.9775C90.085 38.0425 86.895 34.8525 82.96 34.8525H10.9175Z" fill="#FFC33A"/>
<path fill-rule="evenodd" clip-rule="evenodd" d="M10.9175 34.8525H40.3825V30.15C40.3825 27.3875 38.145 25.15 35.3825 25.15H15.9175C13.155 25.15 10.9175 27.3875 10.9175 30.15V34.8525Z" fill="#EC4452"/>
</g>
<defs>
<clipPath id="clip0_5150_2736">
<rect width="100" height="100" fill="white" transform="translate(0.5)"/>
</clipPath>
</defs>
</svg>
