<svg width="121" height="120" viewBox="0 0 121 120" fill="none" xmlns="http://www.w3.org/2000/svg">
<g clip-path="url(#clip0_5150_2720)">
<path d="M99.7965 41.9342C98.2245 38.2532 94.9455 35.6762 91.1206 34.9082V53.2712C91.1206 55.2302 90.4125 57.0032 89.2755 58.4222C87.7575 60.3122 85.4565 61.5482 82.8435 61.5482H38.1525C35.5395 61.5482 33.2385 60.3122 31.7205 58.4222C30.5835 57.0062 29.8755 55.2302 29.8755 53.2712V34.9082C26.0505 35.6762 22.7685 38.2532 21.1995 41.9342L10.4985 67.0082H110.498L99.7965 41.9342Z" fill="#2085F7"/>
<path d="M10.4985 67.0082V96.2462C10.4985 101.88 15.0675 106.449 20.7015 106.449H100.295C105.929 106.449 110.498 101.88 110.498 96.2462V67.0082H10.4985Z" fill="#64A7FF"/>
<path d="M31.7234 58.4222L51.1964 42.9002L29.8784 25.1342V53.2712C29.8784 55.2302 30.5864 57.0032 31.7234 58.4222Z" fill="#D0D5DA"/>
<path d="M69.8018 42.9003L89.2748 58.4223C90.4118 57.0063 91.1198 55.2303 91.1198 53.2713V25.1343L69.8018 42.9003Z" fill="#D0D5DA"/>
<path d="M51.1964 42.9002L54.8654 45.9572C58.2584 48.5882 62.7434 48.5882 66.1334 45.9572L69.8024 42.9002L91.1204 25.1342L66.1334 42.3512C62.7404 44.6882 58.2554 44.6882 54.8654 42.3512L29.8784 25.1342L51.1964 42.9002Z" fill="#AFB7C0"/>
<path d="M66.1341 45.957C62.7411 48.588 58.2561 48.588 54.8661 45.957L51.1971 42.9L31.7241 58.422C33.2421 60.312 35.5431 61.548 38.1561 61.548H82.8471C85.4601 61.548 87.7611 60.312 89.2791 58.422L69.8061 42.9L66.1341 45.957Z" fill="#E5E9EE"/>
<path d="M54.866 42.3511C58.259 44.6881 62.744 44.6881 66.134 42.3511L91.121 25.1341V21.8251C91.121 17.2531 87.416 13.5481 82.844 13.5481H38.153C33.584 13.5481 29.876 17.2531 29.876 21.8251V25.1341L54.866 42.3511Z" fill="#E5E9EE"/>
</g>
<defs>
<clipPath id="clip0_5150_2720">
<rect width="120" height="120" fill="white" transform="translate(0.5)"/>
</clipPath>
</defs>
</svg>
