<svg width="20" height="20" viewBox="0 0 20 20" fill="none" xmlns="http://www.w3.org/2000/svg">
<mask id="mask0_457_418" style="mask-type:alpha" maskUnits="userSpaceOnUse" x="0" y="0" width="20" height="20">
<rect width="20" height="20" fill="#D9D9D9"/>
</mask>
<g mask="url(#mask0_457_418)">
<path d="M2.41602 17.1988V3.75654C2.41602 3.3814 2.54553 3.06432 2.80456 2.80529C3.06358 2.54626 3.38067 2.41675 3.75581 2.41675H16.2429C16.618 2.41675 16.9351 2.54626 17.1941 2.80529C17.4532 3.06432 17.5827 3.3814 17.5827 3.75654V13.2436C17.5827 13.6188 17.4532 13.9358 17.1941 14.1949C16.9351 14.4539 16.618 14.5834 16.2429 14.5834H5.03143L2.41602 17.1988ZM4.58268 13.5001H16.2429C16.3071 13.5001 16.3658 13.4733 16.4191 13.4199C16.4726 13.3665 16.4993 13.3078 16.4993 13.2436V3.75654C16.4993 3.69237 16.4726 3.63362 16.4191 3.58029C16.3658 3.52682 16.3071 3.50008 16.2429 3.50008H3.75581C3.69164 3.50008 3.63289 3.52682 3.57956 3.58029C3.52609 3.63362 3.49935 3.69237 3.49935 3.75654V14.5915L4.58268 13.5001Z" fill="#878A93"/>
</g>
</svg>
