<svg width="20" height="20" viewBox="0 0 20 20" fill="none" xmlns="http://www.w3.org/2000/svg">
<path fill-rule="evenodd" clip-rule="evenodd" d="M2.9363 9.99996C4.28048 7.47158 6.94155 5.74999 10.0047 5.74999C13.0679 5.74999 15.729 7.47158 17.0731 9.99996C15.729 12.5283 13.0679 14.2499 10.0047 14.2499C6.94155 14.2499 4.28048 12.5283 2.9363 9.99996ZM18.5881 10.3265C18.6864 10.1199 18.6864 9.88006 18.5881 9.67346C17.0623 6.46665 13.7924 4.25 10.0047 4.25C6.21705 4.25 2.94712 6.46665 1.42138 9.67346C1.32308 9.88006 1.32308 10.1199 1.42138 10.3265C2.94712 13.5333 6.21705 15.7499 10.0047 15.7499C13.7924 15.7499 17.0623 13.5333 18.5881 10.3265ZM8.25472 9.99998C8.25472 9.03349 9.03822 8.24999 10.0047 8.24999C10.9712 8.24999 11.7547 9.03349 11.7547 9.99998C11.7547 10.9665 10.9712 11.75 10.0047 11.75C9.03822 11.75 8.25472 10.9665 8.25472 9.99998ZM10.0047 6.74999C8.2098 6.74999 6.75473 8.20506 6.75473 9.99998C6.75473 11.7949 8.2098 13.25 10.0047 13.25C11.7996 13.25 13.2547 11.7949 13.2547 9.99998C13.2547 8.20506 11.7996 6.74999 10.0047 6.74999Z" fill="#C2C4C8"/>
</svg>
