<svg width="16" height="16" viewBox="0 0 16 16" fill="none" xmlns="http://www.w3.org/2000/svg">
<path fill-rule="evenodd" clip-rule="evenodd" d="M9.80774 11.141L9.04715 10.3804C8.72678 10.5215 8.37253 10.5998 7.99998 10.5998C6.56405 10.5998 5.39999 9.43579 5.39999 7.99986C5.39999 7.62731 5.47835 7.27306 5.61948 6.9527L4.3848 5.71802C3.53439 6.30121 2.83193 7.08443 2.34526 7.99986C3.42059 10.0226 5.54945 11.3998 7.99998 11.3998C8.62778 11.3998 9.23447 11.3094 9.80774 11.141ZM11.012 10.6482L5.47926 5.11543C6.25282 4.78362 7.10494 4.59989 7.99998 4.59989C10.4505 4.59989 12.5794 5.97716 13.6547 7.99986C13.0572 9.12375 12.1345 10.0484 11.012 10.6482ZM11.8925 11.5287C13.1789 10.7601 14.2191 9.62203 14.8667 8.26106C14.9453 8.09578 14.9453 7.90394 14.8667 7.73866C13.6461 5.17321 11.0301 3.3999 7.99998 3.3999C6.76848 3.3999 5.6054 3.69281 4.57659 4.21276L2.5152 2.15137L1.66668 2.99989L3.52395 4.85717C2.50606 5.60016 1.67982 6.59001 1.13332 7.73866C1.05468 7.90394 1.05468 8.09578 1.13332 8.26106C2.35391 10.8265 4.96986 12.5998 7.99998 12.5998C8.97085 12.5998 9.8992 12.4178 10.7527 12.086L12.5089 13.8422L13.3575 12.9936L11.8925 11.5287ZM6.60148 7.9347L8.06514 9.39836C8.04355 9.39935 8.02182 9.39985 7.99998 9.39985C7.22679 9.39985 6.59999 8.77305 6.59999 7.99986C6.59999 7.97802 6.60049 7.95629 6.60148 7.9347ZM10.5484 8.51781C10.5822 8.35042 10.6 8.17721 10.6 7.99986C10.6 6.56392 9.43592 5.39987 7.99998 5.39987C7.82263 5.39987 7.64942 5.41762 7.48204 5.45146L10.5484 8.51781Z" fill="#171719"/>
</svg>
