<svg width="20" height="20" viewBox="0 0 20 20" fill="none" xmlns="http://www.w3.org/2000/svg">
<path fill-rule="evenodd" clip-rule="evenodd" d="M9.99997 2.2666C5.54946 2.2666 1.75 5.43 1.75 9.54244C1.75 11.3766 2.52546 13.0394 3.76883 14.3043L3.31344 16.85C3.26195 17.1379 3.38245 17.4294 3.62215 17.5969C3.86185 17.7643 4.17703 17.7772 4.42962 17.6299L6.80525 16.2441C7.79031 16.6089 8.86861 16.8183 9.99997 16.8183C14.4505 16.8183 18.2499 13.6549 18.2499 9.54244C18.2499 5.43 14.4505 2.2666 9.99997 2.2666ZM9.99997 3.7666C6.17465 3.7666 3.24999 6.44801 3.24999 9.54244C3.24999 11.0462 3.93344 12.439 5.08319 13.4885C5.27335 13.6621 5.36119 13.921 5.31585 14.1745L5.0758 15.5164L6.36346 14.7653C6.5665 14.6468 6.81332 14.6304 7.03025 14.721C7.93487 15.0986 8.9404 15.3183 9.99997 15.3183C13.8253 15.3183 16.7499 12.6369 16.7499 9.54244C16.7499 6.44801 13.8253 3.7666 9.99997 3.7666ZM7.49998 9.68325C7.49998 10.1435 7.12688 10.5166 6.66665 10.5166C6.20641 10.5166 5.83332 10.1435 5.83332 9.68325C5.83332 9.22301 6.20641 8.84992 6.66665 8.84992C7.12688 8.84992 7.49998 9.22301 7.49998 9.68325ZM10.8333 9.68325C10.8333 10.1435 10.4602 10.5166 9.99997 10.5166C9.53973 10.5166 9.16664 10.1435 9.16664 9.68325C9.16664 9.22301 9.53973 8.84992 9.99997 8.84992C10.4602 8.84992 10.8333 9.22301 10.8333 9.68325ZM14.1666 9.68325C14.1666 10.1435 13.7935 10.5166 13.3333 10.5166C12.8731 10.5166 12.5 10.1435 12.5 9.68325C12.5 9.22301 12.8731 8.84992 13.3333 8.84992C13.7935 8.84992 14.1666 9.22301 14.1666 9.68325Z" fill="#C2C4C8"/>
</svg>
