<svg width="556" height="556" viewBox="0 0 556 556" fill="none" xmlns="http://www.w3.org/2000/svg">
<path d="M378.999 71.5001C345.399 84.7001 319.332 127.667 310.499 147.5C285.332 143.667 228.999 142.8 204.999 170C196.666 164.667 175.799 154.3 158.999 155.5C137.999 157 136.499 168.5 118.999 182.5C101.499 196.5 93.499 193 83.499 199C73.499 205 73.499 223 77.499 233.5C81.499 244 85.999 258 92.999 272C99.999 286 106.999 294 116.999 286.5L129.499 282.5L126.999 291.5L137.999 288.5L132.999 310.5L143.499 301.5C145.999 304 150.999 311.4 150.999 321L140.499 339L150.999 334.5L140.499 370L153.999 366.5C151.999 373.833 148.299 390.1 149.499 396.5L169.999 389.5C168.666 397.167 162.699 415 149.499 425L157.499 434V485.5H452.499V430.5C454.999 424 467.666 428.167 470.999 429C468.599 415.8 454.332 402.5 447.499 397.5C453.499 396.7 458.666 397.167 460.499 397.5C458.899 390.7 452.832 385 449.999 383L457.999 366.5C440.799 361.7 430.166 348.167 426.999 342C431.799 342 443.999 340.667 449.499 340C447.099 334.4 437.499 319.667 432.999 313L446.999 310C443.666 306.833 434.999 298.4 426.999 290C418.999 281.6 429.332 281.833 435.499 283C422.699 277 427.499 262.167 431.499 255.5L418.999 245.5L431.499 237.5L418.999 223H436.999L418.999 207C426.499 192 425.499 159 423.499 145C421.499 131 420.499 115 421.499 103C422.499 91.0001 420.999 55.0001 378.999 71.5001Z" fill="#F4F4F4"/>
<path fill-rule="evenodd" clip-rule="evenodd" d="M239.181 150C225.652 153.724 213.362 159.794 204.999 169.273C196.666 163.94 175.799 153.573 158.999 154.773C144.744 155.791 139.474 161.417 132.086 169.305C128.59 173.038 124.62 177.276 118.999 181.773C108.051 190.531 100.821 192.441 94.4936 194.112C90.7067 195.112 87.243 196.026 83.499 198.273C73.499 204.273 73.499 222.273 77.499 232.773C78.4433 235.252 79.4154 237.925 80.4417 240.748C83.7629 249.883 87.6515 260.578 92.999 271.273C99.999 285.273 106.999 293.273 116.999 285.773L129.499 281.773L126.999 290.773L137.999 287.773L132.999 309.773L143.499 300.773C145.999 303.273 150.999 310.673 150.999 320.273L140.499 338.273L150.999 333.773L140.499 369.273L153.999 365.773C151.999 373.106 148.299 389.373 149.499 395.773L169.999 388.773C168.666 396.44 162.699 414.273 149.499 424.273L157.499 433.273V462.966L187.999 426.773C189.599 413.573 196.999 408.94 200.499 408.273C199.299 415.873 203.332 421.44 205.499 423.273C203.429 412.097 210.954 400.236 217.294 390.242C218.613 388.164 219.88 386.167 220.999 384.273C227.499 373.273 230.499 359.273 228.499 343.273C227.063 331.785 229.494 326.483 233.755 317.188C235.428 313.538 237.384 309.272 239.499 303.773C242.661 295.552 247.156 290.796 251.598 286.098C257.692 279.651 263.685 273.311 265.999 258.273C269.04 238.505 259.653 219.605 251.243 202.67C248.591 197.331 246.037 192.187 243.999 187.273C237.759 172.224 238.059 157.147 239.181 150Z" fill="#505050"/>
<path fill-rule="evenodd" clip-rule="evenodd" d="M274.999 145.403C278.522 150.547 284.876 165.449 282.895 185.253C280.395 210.253 278.895 241.253 292.895 261.253C301.388 273.386 310.249 276.686 318.474 279.75C323.807 281.736 328.872 283.623 333.395 287.753C343.573 297.046 345.135 300.856 350.559 314.087C351.263 315.806 352.033 317.684 352.895 319.753C354.591 323.823 355.98 327.764 357.293 331.491C361.789 344.251 365.4 354.497 377.395 358.753C392.895 364.253 402.895 371.753 405.895 383.253C407.729 381.587 411.595 376.953 412.395 371.753C417.895 372.92 429.795 377.153 433.395 384.753V367.253C434.062 370.087 439.795 374.053 457.395 367.253C457.402 367.251 457.408 367.248 457.414 367.246L457.895 366.253C440.695 361.453 430.062 347.92 426.895 341.753C431.695 341.753 443.895 340.42 449.395 339.753C446.995 334.153 437.395 319.42 432.895 312.753L446.895 309.753C443.562 306.586 434.895 298.153 426.895 289.753C418.895 281.353 429.229 281.586 435.395 282.753C422.595 276.753 427.395 261.92 431.395 255.253L418.895 245.253L431.395 237.253L418.895 222.753H436.895L418.895 206.753C426.395 191.753 425.395 158.753 423.395 144.753C421.395 130.753 420.395 114.753 421.395 102.753C422.395 90.7533 420.895 54.7533 378.895 71.2533C345.295 84.4533 319.229 127.42 310.395 147.253C301.536 145.904 288.813 144.922 274.999 145.403Z" fill="#505050"/>
<path d="M116.999 286.5C106.999 294 99.999 286 92.999 272C85.999 258 81.499 244 77.499 233.5C73.499 223 73.499 205 83.499 199C93.499 193 101.499 196.5 118.999 182.5C136.499 168.5 137.999 157 158.999 155.5C175.799 154.3 196.666 164.667 204.999 170C228.999 142.8 285.332 143.667 310.499 147.5C319.332 127.667 345.399 84.7001 378.999 71.5001C420.999 55.0001 422.499 91.0001 421.499 103C420.499 115 421.499 131 423.499 145C425.499 159 426.499 192 418.999 207L436.999 223H418.999L431.499 237.5L418.999 245.5L431.499 255.5C427.499 262.167 422.699 277 435.499 283C429.332 281.833 418.999 281.6 426.999 290C434.999 298.4 443.666 306.833 446.999 310L432.999 313C437.499 319.667 447.099 334.4 449.499 340C443.999 340.667 431.799 342 426.999 342C430.166 348.167 440.799 361.7 457.999 366.5L449.999 383C452.832 385 458.899 390.7 460.499 397.5C458.666 397.167 453.499 396.7 447.499 397.5C454.332 402.5 468.599 415.8 470.999 429C467.666 428.167 454.999 424 452.499 430.5V485.5H157.499V434L149.499 425C162.699 415 168.666 397.167 169.999 389.5L149.499 396.5C148.299 390.1 151.999 373.833 153.999 366.5L140.499 370L150.999 334.5L140.499 339L150.999 321M116.999 286.5C126.999 279 134.499 272.5 142.499 250.5C150.499 228.5 148.499 223 158.999 209C167.399 197.8 180.832 186.667 186.499 182.5M116.999 286.5L129.499 282.5L126.999 291.5L137.999 288.5L132.999 310.5L143.499 301.5C145.999 304 150.999 311.4 150.999 321M150.999 321C152.999 318.167 158.299 311.4 163.499 307" stroke="black" stroke-width="7" stroke-linecap="round" stroke-linejoin="round"/>
<path d="M296.999 391C267.617 392.469 254.332 377.833 250.999 367.5C254.999 372 267.499 376 278.499 376C287.299 376 293.832 365.333 295.999 360C297.999 361.833 304.999 366.6 316.999 371C328.999 375.4 338.999 358.833 342.499 350C338.999 374 326.999 389.5 296.999 391Z" fill="black" stroke="black" stroke-width="7" stroke-linecap="round" stroke-linejoin="round"/>
<path d="M280.499 406.5C262.739 403.54 261.999 384.559 263.999 373.059C274.999 374.5 282.296 373.202 287.999 369.5C292.149 366.806 294.525 362.019 295.999 359C301.599 363.8 312.499 367.667 316.499 366.5C313.499 401 298.499 409.5 280.499 406.5Z" fill="#F0747C"/>
<path d="M287.999 369.5C292.149 366.806 294.525 362.019 295.999 359C301.599 363.8 312.499 367.667 316.499 366.5C313.499 401 298.499 409.5 280.499 406.5C262.739 403.54 261.999 384.559 263.999 373.059C274.999 374.5 282.296 373.202 287.999 369.5ZM287.999 369.5C288.832 371.98 289.499 383 285.499 393" stroke="black" stroke-width="7" stroke-linecap="round" stroke-linejoin="round"/>
<path d="M192.999 269C201.332 265.833 223.099 262.4 243.499 274C231.999 275.167 206.999 281.4 198.999 297" stroke="black" stroke-width="7" stroke-linecap="round" stroke-linejoin="round"/>
<path d="M390.5 449.5C394.5 439.1 406.833 432.833 412.5 431L437.5 428L458 434L478.5 460.5L481.5 484H458L447.5 487L437.5 484L423 488.5C420.666 487.667 413.1 486.2 401.5 487C387 488 385.5 462.5 390.5 449.5Z" fill="#F4F4F4"/>
<path d="M412.783 484.5C377.732 496 383.517 456 389.517 447.5C399.184 433.805 418.017 423.5 448.517 430C475.363 435.721 481.017 470.333 481.017 485L458.29 484.5M407.517 467C406.35 476 411.017 497 437.37 484.5M464.517 468.5C464.517 473.006 463.054 480.187 458.29 484.5M432.517 463.5C430.85 471 431.217 486.4 446.017 488C451.512 488.594 455.477 487.047 458.29 484.5" stroke="black" stroke-width="7" stroke-linecap="round" stroke-linejoin="round"/>
<path d="M200.998 449.5C196.998 439.1 184.665 432.833 178.998 431L153.999 428L133.499 434L112.999 460.5L109.999 484H133.499L143.999 487L153.999 484L168.499 488.5C170.832 487.667 178.398 486.2 189.998 487C204.498 488 205.998 462.5 200.998 449.5Z" fill="#F4F4F4"/>
<path d="M178.715 484.5C213.766 496 207.981 456 201.981 447.5C192.314 433.805 173.481 423.5 142.981 430C116.135 435.721 110.481 470.333 110.481 485L133.208 484.5M183.981 467C185.148 476 180.481 497 154.128 484.5M126.981 468.5C126.981 473.006 128.444 480.187 133.208 484.5M158.981 463.5C160.648 471 160.281 486.4 145.481 488C139.986 488.594 136.021 487.047 133.208 484.5" stroke="black" stroke-width="7" stroke-linecap="round" stroke-linejoin="round"/>
<path d="M330.499 166C337.999 169 350.999 177 357.999 189.5C365.493 202.882 364.925 209.495 369.499 217.5C373.499 224.5 378.499 236 393.499 245" stroke="black" stroke-width="7" stroke-linecap="round" stroke-linejoin="round"/>
<path d="M253.999 392C258.332 400.5 270.021 413.5 293.499 413.5C320.499 413.5 339.499 405.5 347.499 375" stroke="black" stroke-width="7" stroke-linecap="round" stroke-linejoin="round"/>
<path d="M195.999 188C189.999 191.5 181.096 202.895 177.999 219C175.499 232 179.499 244 176.499 258.5C174.099 270.1 167.666 280.333 164.999 285.5" stroke="black" stroke-width="7" stroke-linecap="round" stroke-linejoin="round"/>
<path d="M365.999 135.5C359.999 126.3 348.832 128.333 343.999 130.5C347.999 111 375.499 90.5 393.499 84C411.499 77.5 409.499 93 409.499 98.5C409.499 104 407.999 126.5 409.499 165C410.999 203.5 409.499 213.5 398.499 217.5C387.499 221.5 385.999 205.5 376.999 189.5C369.799 176.7 357.999 169.833 352.999 168C353.799 164.8 361.999 159 365.999 156.5C361.199 150.5 351.332 151.333 346.999 152.5C346.999 143.7 359.666 137.5 365.999 135.5Z" fill="#EECBC3" stroke="black" stroke-width="7" stroke-linecap="round" stroke-linejoin="round"/>
<path d="M228.999 343C235.999 353 252.499 371.5 267.499 373.5C284.853 375.814 291.999 364 295.499 358.5C300.832 363 312.979 368.315 323.999 364.5C336.999 360 350.499 345 352.999 320" stroke="black" stroke-width="7" stroke-linecap="round" stroke-linejoin="round"/>
<path d="M320.999 315.5C320.999 335 302.597 349 290.999 349C274.999 349 257.999 336.083 257.999 322C257.999 307.917 272.999 297.5 290.999 297.5C305.999 297.5 320.999 301.417 320.999 315.5Z" fill="black"/>
<circle cx="340.999" cy="254" r="20" fill="black"/>
<circle cx="347.999" cy="245" r="3" fill="white"/>
</svg>
