<svg width="101" height="30" viewBox="0 0 101 30" fill="none" xmlns="http://www.w3.org/2000/svg">
<path d="M101 26.5757C101 27.2645 100.806 27.8135 100.419 28.2225C100.053 28.6315 99.5684 28.836 98.9656 28.836H94.2512C93.6269 28.836 93.0995 28.653 92.6689 28.2871C92.2599 27.9426 92.1092 27.426 92.2168 26.7371C92.5398 24.8427 92.7012 22.9591 92.7012 21.0863C92.7227 19.2134 92.4967 17.3513 92.0231 15.5H89.5044C89.935 17.3513 90.1502 19.2026 90.1502 21.054C90.1502 22.8838 89.9888 24.7243 89.6659 26.5757C89.5582 27.2645 89.3215 27.8135 88.9555 28.2225C88.5895 28.6315 88.1052 28.836 87.5024 28.836H82.9171C82.2928 28.836 81.7977 28.6315 81.4318 28.2225C81.0658 27.8135 80.8828 27.2645 80.8828 26.5757V10.0105C80.8828 9.32167 81.0658 8.77273 81.4318 8.36371C81.7977 7.9547 82.2928 7.75019 82.9171 7.75019H86.4691C86.7705 7.75019 87.0934 7.79325 87.4378 7.87935C87.7823 7.94394 88.1267 8.01928 88.4711 8.10539C88.8371 8.16997 89.1923 8.22379 89.5367 8.26684C89.8812 8.28837 90.2041 8.24532 90.5054 8.13768C90.9145 7.98699 91.3665 7.86859 91.8616 7.78248C92.3568 7.69637 92.8734 7.65332 93.4116 7.65332H95.1553C97.1573 7.65332 98.6319 8.18073 99.5791 9.23556C100.526 10.2904 101 11.9587 101 14.2406V26.5757Z" fill="#6A92FE"/>
<path d="M78.8912 22.0868C78.8912 24.3687 78.3207 26.0909 77.1798 27.2534C76.0604 28.4158 74.4997 28.9971 72.4977 28.9971H63.9406C61.9386 28.9971 60.3671 28.4158 59.2262 27.2534C58.0852 26.0909 57.5148 24.3687 57.5148 22.0868V6.91021C57.5148 4.62834 58.0852 2.90616 59.2262 1.7437C60.3671 0.581233 61.9386 0 63.9406 0H72.4977C74.4997 0 76.0604 0.581233 77.1798 1.7437C78.3207 2.90616 78.8912 4.62834 78.8912 6.91021V22.0868ZM69.2686 21.1504C69.7852 19.0408 70.0543 16.8557 70.0759 14.5954C70.1189 12.3135 69.8929 10.0639 69.3978 7.84664H66.7176C67.2127 10.0209 67.4495 12.2489 67.428 14.5308C67.4065 16.8127 67.1697 19.0192 66.7176 21.1504H69.2686Z" fill="#6A92FE"/>
<path d="M56.2128 26.7368C56.2128 27.4256 56.0299 27.9746 55.6639 28.3836C55.2979 28.7926 54.8028 28.9971 54.1785 28.9971H51.3369C49.3349 28.9971 47.8065 28.4697 46.7517 27.4149C45.7184 26.3601 45.2017 24.6917 45.2017 22.4098V13.9497H45.1694C44.6743 13.9497 44.276 13.7882 43.9747 13.4653C43.6733 13.1209 43.5226 12.6688 43.5226 12.1091V9.52583C43.5226 8.98765 43.6625 8.55711 43.9424 8.2342C44.2437 7.9113 44.642 7.74984 45.1371 7.74984H45.2017V4.68223C45.2017 3.99336 45.3847 3.44442 45.7506 3.0354C46.1166 2.62638 46.6117 2.42188 47.236 2.42188H51.6598C52.2841 2.42188 52.7793 2.62638 53.1452 3.0354C53.5112 3.44442 53.6942 3.99336 53.6942 4.68223V7.74984H54.1785C54.8028 7.74984 55.2979 7.95435 55.6639 8.36337C56.0299 8.77238 56.2128 9.32132 56.2128 10.0102V11.6893C56.2128 12.3782 56.0299 12.9271 55.6639 13.3361C55.2979 13.7452 54.8028 13.9497 54.1785 13.9497H53.6942V20.2786C53.6942 20.8814 53.8556 21.2581 54.1785 21.4088C54.9104 21.7748 55.4271 22.1407 55.7285 22.5067C56.0514 22.8727 56.2128 23.2924 56.2128 23.766V26.7368Z" fill="#6A92FE"/>
<path d="M42.624 17.9541C42.624 18.6429 42.4302 19.1919 42.0428 19.6009C41.6768 20.0099 41.1924 20.2144 40.5897 20.2144H31.1931V21.5383C31.1931 22.0334 31.2469 22.4209 31.3545 22.7008C31.4622 22.9591 31.7205 23.0883 32.1295 23.0883H33.1628C33.3135 23.0883 33.4534 23.056 33.5826 22.9914C33.7979 22.8838 33.9808 22.7438 34.1315 22.5716C34.2822 22.3779 34.4329 22.1949 34.5836 22.0227C34.7343 21.8505 34.885 21.6998 35.0357 21.5706C35.2079 21.4415 35.4124 21.3769 35.6492 21.3769H40.5897C41.214 21.3769 41.7091 21.5921 42.075 22.0227C42.4625 22.4532 42.624 22.9914 42.5594 23.6372C42.3657 25.4886 41.7521 26.8448 40.7188 27.7058C39.7071 28.5669 38.297 28.9975 36.4888 28.9975H28.8036C26.8015 28.9975 25.2731 28.4701 24.2183 27.4152C23.185 26.3604 22.6683 24.6921 22.6683 22.4102V14.2406C22.6683 11.9587 23.185 10.2904 24.2183 9.23556C25.2731 8.18073 26.8015 7.65332 28.8036 7.65332H36.4888C38.4908 7.65332 40.0084 8.18073 41.0417 9.23556C42.0966 10.2904 42.624 11.9587 42.624 14.2406V17.9541ZM34.0992 16.3072V15.1125C34.0992 14.6173 34.0347 14.2406 33.9055 13.9823C33.7979 13.7024 33.5503 13.5625 33.1628 13.5625H32.1295C31.7205 13.5625 31.4622 13.7024 31.3545 13.9823C31.2469 14.2406 31.1931 14.6173 31.1931 15.1125V16.3072H34.0992Z" fill="#6A92FE"/>
<path d="M8.75078 26.5759C8.75078 27.2648 8.5678 27.8137 8.20184 28.2227C7.83588 28.6318 7.34075 28.8363 6.71647 28.8363H2.03431C1.41003 28.8363 0.914903 28.6318 0.548942 28.2227C0.182981 27.8137 0 27.2648 0 26.5759V2.42246C0 1.73359 0.182981 1.18465 0.548942 0.775633C0.914903 0.366617 1.41003 0.162109 2.03431 0.162109H14.5308C16.5544 0.162109 18.1258 0.743342 19.2453 1.90581C20.3862 3.06827 20.9567 4.79045 20.9567 7.07232V13.9502C20.9567 16.2321 20.3862 17.9543 19.2453 19.1168C18.1258 20.2792 16.5544 20.8605 14.5308 20.8605H8.75078V26.5759ZM11.3017 13.0784C11.7108 13.0784 12.0337 13.0461 12.2705 12.9815C12.5288 12.9169 12.6902 12.7555 12.7548 12.4972C12.9055 11.9375 12.9809 11.3347 12.9809 10.6889C12.9809 10.0215 12.9055 9.42954 12.7548 8.91289C12.6472 8.56846 12.475 8.33166 12.2382 8.2025C12.0229 8.07333 11.7108 8.00875 11.3017 8.00875H8.81536C8.96605 8.7622 9.03063 9.61252 9.00911 10.5597C9.00911 11.4854 8.94452 12.3249 8.81536 13.0784H11.3017Z" fill="#6A92FE"/>
</svg>
