<svg width="24" height="24" viewBox="0 0 24 24" fill="none" xmlns="http://www.w3.org/2000/svg">
<g clip-path="url(#clip0_5292_11516)">
<path d="M3.69819 22.2863L17.686 17.2589L6.14919 5.76172L1.14519 19.7363C0.576989 21.3239 2.11179 22.8563 3.69819 22.2863Z" fill="#EF4452"/>
<path d="M6.21357 2.79824C6.83257 2.79824 7.33437 2.29644 7.33437 1.67744C7.33437 1.05844 6.83257 0.556641 6.21357 0.556641C5.59457 0.556641 5.09277 1.05844 5.09277 1.67744C5.09277 2.29644 5.59457 2.79824 6.21357 2.79824Z" fill="#EDCCF8"/>
<path d="M18.1979 16.9543C19.3999 15.7523 17.7475 12.151 14.5072 8.91068C11.2669 5.67035 7.66562 4.01798 6.46358 5.22001C5.26155 6.42204 6.91392 10.0233 10.1543 13.2636C13.3946 16.504 16.9958 18.1563 18.1979 16.9543Z" fill="#A41926"/>
<path d="M10.2384 8.28437C10.1706 8.28437 10.101 8.27477 10.032 8.25557C9.63358 8.14217 9.40318 7.72697 9.51658 7.32857C9.87418 6.07637 9.85498 4.75397 9.46078 3.50417C9.33598 3.10877 9.55558 2.68817 9.95038 2.56337C10.3452 2.43857 10.7664 2.65757 10.8912 3.05297C11.3742 4.58357 11.3976 6.20477 10.959 7.74017C10.8648 8.06957 10.5654 8.28437 10.2384 8.28437Z" fill="#B44BD7"/>
<path d="M17.6216 10.4742C17.3894 10.4742 17.1602 10.3668 17.0138 10.164C16.7708 9.82858 16.8458 9.35998 17.1812 9.11638C18.7676 7.96678 20.6462 7.31338 22.6142 7.22758C23.0312 7.22338 23.378 7.53058 23.3966 7.94398C23.4146 8.35798 23.0936 8.70778 22.6802 8.72638C21.0062 8.79958 19.4096 9.35458 18.0614 10.3314C17.9282 10.428 17.7746 10.4742 17.6222 10.4742H17.6216Z" fill="#EF4452"/>
<path d="M20.6289 14.2598C20.5335 14.2598 20.4363 14.2412 20.3421 14.2022C19.8381 13.9934 19.3125 13.8326 18.7797 13.724C17.1159 13.3844 15.4029 13.5494 13.8261 14.2022C13.4415 14.36 13.0041 14.1788 12.8463 13.7966C12.6879 13.4138 12.8697 12.9752 13.2519 12.8168C15.1065 12.0488 17.1225 11.8544 19.0797 12.2546C19.7061 12.3824 20.3241 12.5714 20.9163 12.8168C21.2991 12.9752 21.4809 13.4138 21.3225 13.7966C21.2031 14.0852 20.9229 14.2598 20.6289 14.2598Z" fill="#7896FF"/>
<path d="M12.8152 10.5422C12.5902 10.5422 12.367 10.4414 12.2194 10.2488C11.9674 9.92055 12.0292 9.44955 12.358 9.19755C14.1622 7.81335 15.319 5.80935 15.616 3.55455C15.67 3.14415 16.0474 2.85435 16.4572 2.90895C16.8682 2.96295 17.1574 3.33975 17.1028 3.75015C16.7536 6.40215 15.3928 8.75895 13.2706 10.3874C13.1344 10.4918 12.9748 10.5422 12.8152 10.5422Z" fill="#4A81EC"/>
<path d="M9.43907 11.8424L9.43935 10.7162C9.43941 10.4819 9.24953 10.2919 9.01525 10.2919L7.88905 10.2916C7.65477 10.2916 7.46481 10.4814 7.46475 10.7157L7.46447 11.8419C7.46442 12.0762 7.65429 12.2662 7.88857 12.2662L9.01477 12.2665C9.24905 12.2665 9.43902 12.0767 9.43907 11.8424Z" fill="white"/>
<path d="M14.1698 0.332714L13.1412 0.851514C12.9273 0.959409 12.8414 1.22028 12.9493 1.43419L13.4681 2.46276C13.576 2.67667 13.8368 2.76262 14.0507 2.65472L15.0793 2.13592C15.2932 2.02803 15.3792 1.76715 15.2713 1.55324L14.7525 0.524673C14.6446 0.310762 14.3837 0.224819 14.1698 0.332714Z" fill="#7896FF"/>
<path d="M22.4005 17.6421L22.7494 16.5443C22.822 16.316 22.6958 16.072 22.4674 15.9994L21.3696 15.6505C21.1413 15.5779 20.8973 15.7041 20.8247 15.9325L20.4758 17.0303C20.4032 17.2587 20.5294 17.5026 20.7578 17.5752L21.8556 17.9241C22.084 17.9967 22.3279 17.8705 22.4005 17.6421Z" fill="#A8BFFF"/>
<path d="M20.1212 6.30871C20.6195 6.30871 21.0235 5.90469 21.0235 5.40631C21.0235 4.90792 20.6195 4.50391 20.1212 4.50391C19.6228 4.50391 19.2188 4.90792 19.2188 5.40631C19.2188 5.90469 19.6228 6.30871 20.1212 6.30871Z" fill="#FFC84D"/>
<path d="M2.1026 10.2218C2.60098 10.2218 3.005 9.81777 3.005 9.31939C3.005 8.82101 2.60098 8.41699 2.1026 8.41699C1.60421 8.41699 1.2002 8.82101 1.2002 9.31939C1.2002 9.81777 1.60421 10.2218 2.1026 10.2218Z" fill="#A8BFFF"/>
<path d="M14.7385 21.9898C15.3201 21.9898 15.7915 21.5183 15.7915 20.9368C15.7915 20.3552 15.3201 19.8838 14.7385 19.8838C14.157 19.8838 13.6855 20.3552 13.6855 20.9368C13.6855 21.5183 14.157 21.9898 14.7385 21.9898Z" fill="#FFC84D"/>
</g>
<defs>
<clipPath id="clip0_5292_11516">
<rect width="24" height="24" fill="white"/>
</clipPath>
</defs>
</svg>
