<svg width="20" height="20" viewBox="0 0 20 20" fill="none" xmlns="http://www.w3.org/2000/svg">
<path d="M12.0234 3.81514C12.0234 2.7145 11.131 1.8252 10.0322 1.8252C9.21656 1.8252 8.48337 2.32268 8.18199 3.08064L5.85676 8.92839V18.1712L15.1109 18.1711C15.2912 18.1712 15.4655 18.1712 15.6141 18.16C15.7781 18.1476 15.9638 18.1189 16.1546 18.0338C16.4261 17.9127 16.6579 17.7176 16.8237 17.4709C16.9403 17.2974 17.0003 17.1194 17.0406 16.9599C17.0771 16.8154 17.1069 16.6437 17.1377 16.4661L18.0134 11.4252C18.102 10.9156 18.1766 10.486 18.2069 10.1326C18.2384 9.76494 18.2309 9.39984 18.0998 9.0418C17.9048 8.50904 17.5286 8.06185 17.0371 7.77856C16.7068 7.58818 16.3484 7.51824 15.9808 7.48634C15.6274 7.45567 15.1913 7.45569 14.674 7.4557L12.0234 7.4557V3.81514Z" fill="#6A92FE"/>
<path d="M4.35677 18.1712V9.00169L3.17169 9.00168C3.07149 9.00165 2.95623 9.00161 2.85537 9.00985C2.73951 9.01932 2.57837 9.04329 2.41045 9.12884C2.19093 9.2407 2.01246 9.41917 1.9006 9.63869C1.81505 9.80661 1.79108 9.96775 1.78161 10.0836C1.77337 10.1845 1.77341 10.2997 1.77344 10.3999L1.77345 16.7729C1.77342 16.8731 1.77338 16.9884 1.78162 17.0892C1.79109 17.2051 1.81505 17.3662 1.90061 17.5341C2.01246 17.7537 2.19094 17.9321 2.41046 18.044C2.57838 18.1295 2.73952 18.1535 2.85538 18.163C2.95622 18.1712 3.07145 18.1712 3.17164 18.1712H4.35677Z" fill="#6A92FE"/>
</svg>
