<svg width="101" height="100" viewBox="0 0 101 100" fill="none" xmlns="http://www.w3.org/2000/svg">
<g clip-path="url(#clip0_5150_2750)">
<path d="M73.0352 20.2775C69.1702 20.2775 66.0377 23.41 66.0377 27.275L64.1827 38.29L56.1227 30.23L40.9477 15.055C40.9477 15.055 40.9452 15.0525 40.9427 15.05C38.2627 12.3675 33.9627 12.3225 31.3402 14.945C28.7177 17.5675 28.7652 21.8675 31.4452 24.5475L46.6252 39.7275L46.6052 39.75L27.2552 20.4C24.5777 17.72 20.2802 17.675 17.6602 20.295C15.0402 22.915 15.0877 27.21 17.7652 29.89L37.1152 49.24L37.0852 49.27L20.5627 32.7475C17.9027 30.0875 13.5927 30.0825 10.9352 32.74C8.2802 35.395 8.2827 39.7075 10.9427 42.3675L15.9927 47.4175C13.6352 45.88 10.4877 46.1075 8.4677 48.1275C6.1377 50.4575 6.1852 54.2825 8.5752 56.67L30.3752 78.47C41.7352 89.83 60.1552 89.83 71.5152 78.47C77.1952 72.79 80.0352 65.345 80.0352 57.9V27.275C80.0352 23.41 76.9002 20.2775 73.0352 20.2775Z" fill="#E68E51"/>
<path d="M82.6924 22.6425C79.0699 22.6425 76.1349 25.58 76.1349 29.2025L74.4299 39.3225L65.3399 30.2325L50.1224 15.015L50.1199 15.01C47.8249 12.7175 44.1474 12.675 41.9024 14.92C39.6574 17.165 39.6999 20.8425 41.9924 23.1375L57.2149 38.36L55.7274 39.845L36.3199 20.4375C34.0149 18.1325 30.3174 18.0925 28.0624 20.3475C25.8074 22.6025 25.8474 26.3 28.1524 28.605L47.5599 48.0125L46.0799 49.4925L29.4624 32.875C27.2099 30.6225 23.5624 30.62 21.3149 32.8675C19.0674 35.115 19.0699 38.7625 21.3224 41.015L37.9399 57.6325L36.4074 59.1675L26.3699 49.13C24.0874 46.845 20.4324 46.8 18.2074 49.025C15.9824 51.25 16.0274 54.905 18.3099 57.1875L28.3499 67.2275L32.1324 71.01L39.1374 78.015L39.5949 78.4725C50.9549 89.8325 69.3749 89.8325 80.7349 78.4725C86.4149 72.7925 89.2549 65.3475 89.2549 57.9025V29.2025C89.2549 25.58 86.3174 22.6425 82.6974 22.6425H82.6924Z" fill="#FFCCA8"/>
<path d="M65.1975 14.8976C67.2741 14.8976 68.9575 13.2142 68.9575 11.1376C68.9575 9.06097 67.2741 7.37756 65.1975 7.37756C63.1209 7.37756 61.4375 9.06097 61.4375 11.1376C61.4375 13.2142 63.1209 14.8976 65.1975 14.8976Z" fill="#EDCCF8"/>
<path d="M27.469 90.6527C29.5456 90.6527 31.229 88.9693 31.229 86.8927C31.229 84.8161 29.5456 83.1327 27.469 83.1327C25.3924 83.1327 23.709 84.8161 23.709 86.8927C23.709 88.9693 25.3924 90.6527 27.469 90.6527Z" fill="#F66570"/>
<path d="M84.5551 3.88861L79.2315 6.57381C78.1245 7.13219 77.6797 8.48226 78.2381 9.58929L80.9233 14.9129C81.4817 16.02 82.8317 16.4647 83.9388 15.9064L89.2624 13.2212C90.3694 12.6628 90.8142 11.3127 90.2558 10.2057L87.5706 4.88203C87.0123 3.775 85.6622 3.33023 84.5551 3.88861Z" fill="#B44BD7"/>
<path d="M16.9267 80.2691L15.4196 75.5279C15.1059 74.541 14.0515 73.9953 13.0647 74.309L8.32344 75.8161C7.33657 76.1298 6.79085 77.1841 7.10455 78.171L8.61165 82.9122C8.92535 83.8991 9.97968 84.4448 10.9666 84.1311L15.7078 82.624C16.6947 82.3103 17.2404 81.256 16.9267 80.2691Z" fill="#6376FF"/>
<path d="M94.4651 24.9376C96.5417 24.9376 98.2251 23.2542 98.2251 21.1776C98.2251 19.101 96.5417 17.4176 94.4651 17.4176C92.3885 17.4176 90.7051 19.101 90.7051 21.1776C90.7051 23.2542 92.3885 24.9376 94.4651 24.9376Z" fill="#7896FF"/>
</g>
<defs>
<clipPath id="clip0_5150_2750">
<rect width="100" height="100" fill="white" transform="translate(0.5)"/>
</clipPath>
</defs>
</svg>
