<svg width="22" height="20" viewBox="0 0 22 20" fill="none" xmlns="http://www.w3.org/2000/svg">
<mask id="mask0_5471_11054" style="mask-type:alpha" maskUnits="userSpaceOnUse" x="0" y="0" width="22" height="20">
<path fill-rule="evenodd" clip-rule="evenodd" d="M11.0348 3.3252C10.8175 3.3252 10.6221 3.44791 10.5418 3.63488L7.85336 9.89535V16.6712H16.496C16.7234 16.6712 16.8494 16.6707 16.9414 16.6643C16.9699 16.6623 16.9878 16.6601 16.9978 16.6586C17.0051 16.6544 17.0117 16.6493 17.0174 16.6434C17.0207 16.6345 17.0261 16.6185 17.0331 16.5929C17.0557 16.51 17.0777 16.3952 17.1167 16.1877L18.0524 11.2004C18.1556 10.6504 18.2234 10.2854 18.2493 10.0046C18.2747 9.73074 18.2504 9.61805 18.2265 9.55735C18.1466 9.35526 17.9925 9.18564 17.7911 9.07818C17.7306 9.0459 17.6149 9.00451 17.3191 8.98075C17.0159 8.95638 16.6159 8.95572 16.013 8.95572H13.0952C13.0887 8.95572 13.082 8.95572 13.0753 8.95573C12.9671 8.95576 12.8426 8.95579 12.7337 8.94755C12.6086 8.93809 12.4345 8.91412 12.2532 8.82856C12.0161 8.71671 11.8234 8.53823 11.7026 8.31871C11.6103 8.15102 11.5843 7.99015 11.5741 7.8742C11.5651 7.77343 11.5652 7.65836 11.5652 7.55849C11.5652 7.55229 11.5652 7.54615 11.5652 7.54007V3.81515C11.5652 3.54484 11.3288 3.3252 11.0348 3.3252ZM11.0348 1.8252C12.2214 1.8252 13.1852 2.7145 13.1852 3.81515V7.45572L16.0479 7.45572C16.6066 7.45571 17.0775 7.4557 17.4592 7.48636C17.8562 7.51826 18.2433 7.5882 18.6 7.77858C19.1309 8.06187 19.5372 8.50906 19.7478 9.04183C19.8893 9.39987 19.8974 9.76497 19.8634 10.1326C19.8307 10.486 19.7501 10.9156 19.6545 11.4253L18.7087 16.4661C18.6754 16.6438 18.6432 16.8155 18.6038 16.96C18.5603 17.1195 18.4955 17.2975 18.3696 17.4709C18.1905 17.7177 17.9401 17.9127 17.6469 18.0338C17.4408 18.119 17.2403 18.1477 17.0632 18.1601C16.9027 18.1713 16.7145 18.1712 16.5197 18.1712L3.62535 18.1712C3.51714 18.1712 3.39266 18.1713 3.28373 18.163C3.1586 18.1536 2.98457 18.1296 2.80322 18.0441C2.56614 17.9322 2.37338 17.7537 2.25258 17.5342C2.16018 17.3663 2.1343 17.2051 2.12407 17.0893C2.11517 16.9884 2.11521 16.8732 2.11525 16.773L2.11524 10.4184C2.11524 10.4123 2.11524 10.4062 2.11524 10.4C2.1152 10.2998 2.11516 10.1845 2.12406 10.0836C2.13429 9.96778 2.16017 9.80664 2.25257 9.63873C2.37337 9.4192 2.56613 9.24073 2.80321 9.12887C2.98456 9.04331 3.15859 9.01935 3.28372 9.00988C3.39266 9.00164 3.51713 9.00168 3.62535 9.00171C3.63204 9.00171 3.63868 9.00171 3.64524 9.00171H6.49375L9.03649 3.08065C9.36198 2.32269 10.1538 1.8252 11.0348 1.8252ZM6.23336 10.5017H3.73524L3.73525 16.6712H6.23336V10.5017Z" fill="#171719"/>
</mask>
<g mask="url(#mask0_5471_11054)">
<rect x="0.199219" width="21.6" height="20" fill="#37383C" fill-opacity="0.28"/>
</g>
</svg>
