<svg width="20" height="20" viewBox="0 0 20 20" fill="none" xmlns="http://www.w3.org/2000/svg">
<mask id="mask0_457_408" style="mask-type:alpha" maskUnits="userSpaceOnUse" x="0" y="0" width="20" height="20">
<rect width="20" height="20" fill="#D9D9D9"/>
</mask>
<g mask="url(#mask0_457_408)">
<path d="M10.0023 13.1476C10.8772 13.1476 11.6202 12.8414 12.2313 12.229C12.8424 11.6167 13.148 10.8731 13.148 9.99821C13.148 9.12335 12.8418 8.38036 12.2294 7.76925C11.6171 7.15814 10.8735 6.85258 9.99859 6.85258C9.12373 6.85258 8.38075 7.15876 7.76964 7.77112C7.15852 8.38348 6.85297 9.1271 6.85297 10.002C6.85297 10.8768 7.15915 11.6198 7.77151 12.2309C8.38387 12.842 9.12748 13.1476 10.0023 13.1476ZM10.0005 12.0001C9.44491 12.0001 8.97269 11.8056 8.5838 11.4167C8.19491 11.0279 8.00047 10.5556 8.00047 10.0001C8.00047 9.44453 8.19491 8.9723 8.5838 8.58342C8.97269 8.19453 9.44491 8.00008 10.0005 8.00008C10.556 8.00008 11.0282 8.19453 11.4171 8.58342C11.806 8.9723 12.0005 9.44453 12.0005 10.0001C12.0005 10.5556 11.806 11.0279 11.4171 11.4167C11.0282 11.8056 10.556 12.0001 10.0005 12.0001ZM10.0015 15.5834C8.13248 15.5834 6.4295 15.0756 4.89255 14.0601C3.35561 13.0447 2.20783 11.6913 1.44922 10.0001C2.20783 8.30883 3.35519 6.9555 4.8913 5.94008C6.42755 4.92453 8.13026 4.41675 9.99943 4.41675C11.8685 4.41675 13.5714 4.92453 15.1084 5.94008C16.6453 6.9555 17.7931 8.30883 18.5517 10.0001C17.7931 11.6913 16.6457 13.0447 15.1096 14.0601C13.5734 15.0756 11.8707 15.5834 10.0015 15.5834ZM10.0005 14.5001C11.556 14.5001 12.9935 14.0973 14.313 13.2917C15.6324 12.4862 16.6463 11.389 17.3546 10.0001C16.6463 8.61119 15.6324 7.51397 14.313 6.70841C12.9935 5.90286 11.556 5.50008 10.0005 5.50008C8.44491 5.50008 7.00741 5.90286 5.68797 6.70841C4.36852 7.51397 3.35464 8.61119 2.6463 10.0001C3.35464 11.389 4.36852 12.4862 5.68797 13.2917C7.00741 14.0973 8.44491 14.5001 10.0005 14.5001Z" fill="#878A93"/>
</g>
</svg>
