<svg width="100" height="100" viewBox="0 0 100 100" fill="none" xmlns="http://www.w3.org/2000/svg">
<circle cx="50" cy="50" r="50" fill="#E1E9FF"/>
<g filter="url(#filter0_b_5559_12468)">
<path d="M81.9735 76.6692C79.0315 61.7524 65.694 50.4863 49.6799 50.4863C33.6657 50.4863 20.3282 61.7524 17.3862 76.6692C16.7493 79.8945 19.3273 82.8733 22.6636 82.8733H76.6885C80.0248 82.8733 82.6028 79.8945 81.9659 76.6692H81.9735Z" fill="#6A92FE"/>
<path d="M49.6779 44.5494C58.6213 44.5494 65.8714 37.2993 65.8714 28.3559C65.8714 19.4124 58.6213 12.1624 49.6779 12.1624C40.7345 12.1624 33.4844 19.4124 33.4844 28.3559C33.4844 37.2993 40.7345 44.5494 49.6779 44.5494Z" fill="#6A92FE"/>
</g>
<defs>
<filter id="filter0_b_5559_12468" x="15.5554" y="10.4287" width="68.2417" height="74.1782" filterUnits="userSpaceOnUse" color-interpolation-filters="sRGB">
<feFlood flood-opacity="0" result="BackgroundImageFix"/>
<feGaussianBlur in="BackgroundImageFix" stdDeviation="0.866811"/>
<feComposite in2="SourceAlpha" operator="in" result="effect1_backgroundBlur_5559_12468"/>
<feBlend mode="normal" in="SourceGraphic" in2="effect1_backgroundBlur_5559_12468" result="shape"/>
</filter>
</defs>
</svg>
