<svg width="24" height="24" viewBox="0 0 24 24" fill="none" xmlns="http://www.w3.org/2000/svg">
<g clip-path="url(#clip0_5585_15912)">
<circle cx="12" cy="12" r="12" fill="white"/>
<path fill-rule="evenodd" clip-rule="evenodd" d="M11.9998 8.89999C10.1957 8.89999 8.73316 10.3625 8.73316 12.1666C8.73316 13.9708 10.1957 15.4333 11.9998 15.4333C13.8039 15.4333 15.2665 13.9708 15.2665 12.1666C15.2665 10.3625 13.8039 8.89999 11.9998 8.89999ZM9.93315 12.1666C9.93315 11.0253 10.8584 10.1 11.9998 10.1C13.1412 10.1 14.0665 11.0253 14.0665 12.1666C14.0665 13.308 13.1412 14.2333 11.9998 14.2333C10.8584 14.2333 9.93315 13.308 9.93315 12.1666Z" fill="#878A93"/>
<path fill-rule="evenodd" clip-rule="evenodd" d="M10.7401 5.39995C10.3903 5.3996 10.0955 5.39931 9.81853 5.48343C9.57531 5.55731 9.34905 5.67842 9.15269 5.83983C8.92908 6.02365 8.76581 6.26913 8.5721 6.56038L8.01256 7.39998L7.44313 7.39998C7.08988 7.39997 6.78909 7.39996 6.54214 7.42014C6.2827 7.44134 6.0303 7.48776 5.78901 7.6107C5.42524 7.79606 5.12947 8.09182 4.94412 8.4556C4.82118 8.69688 4.77475 8.94928 4.75356 9.20872C4.73338 9.45567 4.73339 9.75645 4.7334 10.1097V15.2236C4.73339 15.5768 4.73338 15.8776 4.75356 16.1245C4.77475 16.384 4.82118 16.6364 4.94412 16.8777C5.12947 17.2414 5.42524 17.5372 5.78901 17.7226C6.0303 17.8455 6.2827 17.8919 6.54214 17.9131C6.78909 17.9333 7.08987 17.9333 7.44311 17.9333H16.557C16.9102 17.9333 17.211 17.9333 17.4579 17.9131C17.7174 17.8919 17.9698 17.8455 18.2111 17.7226C18.5748 17.5372 18.8706 17.2414 19.056 16.8777C19.1789 16.6364 19.2253 16.384 19.2465 16.1245C19.2667 15.8776 19.2667 15.5768 19.2667 15.2236V10.1097C19.2667 9.75646 19.2667 9.45567 19.2465 9.20872C19.2253 8.94928 19.1789 8.69688 19.056 8.4556C18.8706 8.09182 18.5748 7.79606 18.2111 7.6107C17.9698 7.48776 17.7174 7.44134 17.4579 7.42014C17.211 7.39996 16.9102 7.39997 16.557 7.39998L15.9881 7.39998L15.4279 6.5599C15.2342 6.26876 15.0709 6.02338 14.8473 5.83964C14.651 5.67829 14.4248 5.55723 14.1816 5.4834C13.9047 5.39931 13.61 5.3996 13.2603 5.39995L10.7401 5.39995ZM10.1673 6.63164C10.2513 6.6061 10.3537 6.59999 10.8086 6.59999H13.1918C13.6465 6.59999 13.7489 6.6061 13.833 6.63162C13.9252 6.65963 14.011 6.70555 14.0855 6.76675C14.1533 6.82253 14.2152 6.90431 14.4675 7.28263L15.0095 8.09541L15.0211 8.11307C15.0625 8.17618 15.141 8.29589 15.2528 8.38774C15.3476 8.46563 15.4568 8.52407 15.5742 8.55971C15.7126 8.60175 15.8558 8.60066 15.9313 8.60009L15.9524 8.59998H16.5334C16.9166 8.59998 17.168 8.60044 17.3602 8.61615C17.5455 8.63129 17.6223 8.65752 17.6663 8.67991C17.8043 8.75021 17.9164 8.8624 17.9868 9.00038C18.0091 9.04431 18.0354 9.12121 18.0505 9.30644C18.0662 9.49867 18.0667 9.75004 18.0667 10.1333V15.2C18.0667 15.5832 18.0662 15.8346 18.0505 16.0268C18.0354 16.2121 18.0091 16.2889 17.9868 16.3329C17.9164 16.4709 17.8043 16.583 17.6663 16.6534C17.6223 16.6757 17.5455 16.702 17.3602 16.7171C17.168 16.7328 16.9166 16.7333 16.5334 16.7333H7.46672C7.08346 16.7333 6.83209 16.7328 6.63985 16.7171C6.45462 16.702 6.37773 16.6757 6.3338 16.6534C6.19582 16.583 6.08363 16.4709 6.01332 16.3329C5.99094 16.2889 5.9647 16.2121 5.94957 16.0268C5.93386 15.8346 5.9334 15.5832 5.9334 15.2V10.1333C5.9334 9.75004 5.93386 9.49867 5.94957 9.30644C5.9647 9.12121 5.99094 9.04431 6.01332 9.00038C6.08363 8.8624 6.19582 8.75021 6.3338 8.67991C6.37773 8.65752 6.45462 8.63129 6.63985 8.61615C6.83209 8.60044 7.08346 8.59998 7.46672 8.59998H8.04824L8.06939 8.60009C8.14489 8.60066 8.28808 8.60175 8.42654 8.5597C8.54395 8.52403 8.65318 8.46557 8.74798 8.38764C8.85976 8.29575 8.93827 8.176 8.97966 8.11286L8.9913 8.0952L9.53269 7.28292C9.78495 6.90444 9.84683 6.82262 9.91471 6.76682C9.98919 6.7056 10.075 6.65966 10.1673 6.63164Z" fill="#878A93"/>
</g>
<defs>
<clipPath id="clip0_5585_15912">
<rect width="24" height="24" fill="white"/>
</clipPath>
</defs>
</svg>
