<svg width="16" height="16" viewBox="0 0 16 16" fill="none" xmlns="http://www.w3.org/2000/svg">
<path fill-rule="evenodd" clip-rule="evenodd" d="M2.34904 7.99938C3.42438 5.97668 5.55324 4.59941 8.00377 4.59941C10.4543 4.59941 12.5832 5.97668 13.6585 7.99938C12.5832 10.0221 10.4543 11.3994 8.00377 11.3994C5.55324 11.3994 3.42438 10.0221 2.34904 7.99938ZM14.8704 8.26058C14.9491 8.0953 14.9491 7.90347 14.8704 7.73818C13.6499 5.17273 11.0339 3.39941 8.00377 3.39941C4.97364 3.39941 2.35769 5.17273 1.1371 7.73818C1.05847 7.90347 1.05847 8.0953 1.1371 8.26058C2.35769 10.826 4.97364 12.5994 8.00377 12.5994C11.0339 12.5994 13.6499 10.826 14.8704 8.26058ZM6.60378 7.9994C6.60378 7.2262 7.23058 6.5994 8.00378 6.5994C8.77697 6.5994 9.40377 7.2262 9.40377 7.9994C9.40377 8.7726 8.77697 9.3994 8.00378 9.3994C7.23058 9.3994 6.60378 8.7726 6.60378 7.9994ZM8.00378 5.39941C6.56784 5.39941 5.40378 6.56346 5.40378 7.9994C5.40378 9.43534 6.56784 10.5994 8.00378 10.5994C9.43971 10.5994 10.6038 9.43534 10.6038 7.9994C10.6038 6.56346 9.43971 5.39941 8.00378 5.39941Z" fill="#171719"/>
</svg>
