<svg width="37" height="36" viewBox="0 0 37 36" fill="none" xmlns="http://www.w3.org/2000/svg">
<g filter="url(#filter0_d_5522_10730)">
<circle cx="17.8333" cy="17.3333" r="11.3333" fill="white"/>
</g>
<mask id="mask0_5522_10730" style="mask-type:alpha" maskUnits="userSpaceOnUse" x="9" y="9" width="17" height="17">
<rect x="9.83203" y="9.3335" width="16" height="16" fill="#D9D9D9"/>
</mask>
<g mask="url(#mask0_5522_10730)">
<path d="M13.166 22.0001H14.007L20.8314 15.1757L19.9904 14.3347L13.166 21.159V22.0001ZM12.7686 23C12.5979 23 12.4548 22.9423 12.3393 22.8268C12.2238 22.7113 12.166 22.5682 12.166 22.3975V21.2424C12.166 21.0798 12.1972 20.9248 12.2596 20.7775C12.322 20.6302 12.4079 20.5018 12.5173 20.3924L20.9596 11.9539C21.0604 11.8624 21.1717 11.7916 21.2935 11.7417C21.4154 11.6917 21.5431 11.6667 21.6768 11.6667C21.8104 11.6667 21.9399 11.6905 22.0652 11.7379C22.1905 11.7853 22.3015 11.8608 22.398 11.9642L23.2121 12.7885C23.3156 12.8851 23.3893 12.9962 23.4333 13.1219C23.4773 13.2476 23.4993 13.3733 23.4993 13.499C23.4993 13.633 23.4764 13.761 23.4306 13.8828C23.3849 14.0046 23.312 14.1159 23.2121 14.2167L14.7737 22.6488C14.6643 22.7582 14.5359 22.8441 14.3886 22.9064C14.2412 22.9688 14.0863 23 13.9237 23H12.7686ZM20.4035 14.7625L19.9904 14.3347L20.8314 15.1757L20.4035 14.7625Z" fill="#6F7277"/>
</g>
<defs>
<filter id="filter0_d_5522_10730" x="0.5" y="-2.98023e-07" width="35.9993" height="36.0001" filterUnits="userSpaceOnUse" color-interpolation-filters="sRGB">
<feFlood flood-opacity="0" result="BackgroundImageFix"/>
<feColorMatrix in="SourceAlpha" type="matrix" values="0 0 0 0 0 0 0 0 0 0 0 0 0 0 0 0 0 0 127 0" result="hardAlpha"/>
<feOffset dx="0.666667" dy="0.666667"/>
<feGaussianBlur stdDeviation="3.33333"/>
<feComposite in2="hardAlpha" operator="out"/>
<feColorMatrix type="matrix" values="0 0 0 0 0.203922 0 0 0 0 0.333333 0 0 0 0 0.615686 0 0 0 0.1 0"/>
<feBlend mode="normal" in2="BackgroundImageFix" result="effect1_dropShadow_5522_10730"/>
<feBlend mode="normal" in="SourceGraphic" in2="effect1_dropShadow_5522_10730" result="shape"/>
</filter>
</defs>
</svg>
