<svg width="24" height="24" viewBox="0 0 24 24" fill="none" xmlns="http://www.w3.org/2000/svg">
<g clip-path="url(#clip0_5346_11341)">
<path d="M11.9877 14.4941C11.9775 14.4941 11.9685 14.4941 11.9583 14.4941C11.7459 15.2537 11.0565 15.8141 10.2297 15.8141C10.2093 15.8141 10.1907 15.8087 10.1709 15.8081V17.4173C10.1709 18.4127 10.9779 19.2197 11.9733 19.2197C12.9687 19.2197 13.7757 18.4127 13.7757 17.4173V15.8081C13.7559 15.8087 13.7367 15.8141 13.7163 15.8141C12.8889 15.8141 12.1995 15.2537 11.9877 14.4941Z" fill="#E84453"/>
<path d="M21.6178 10.5303L20.5738 8.16035H20.5858L19.8838 2.76635C19.7278 1.57835 18.2698 1.09835 17.4418 1.96835L14.5258 5.01635H9.60581L6.6898 1.96835C5.8618 1.09835 4.4038 1.57835 4.2478 2.76635L3.6178 7.60835L2.3278 10.5303C1.9378 11.2803 1.7878 12.1203 1.8058 12.9663H1.7998C1.7998 13.0023 1.8058 13.0503 1.8058 13.0923C1.8118 13.2423 1.8238 13.3983 1.8418 13.5483C1.8478 13.6263 1.8538 13.6983 1.8658 13.7703C1.8898 13.9503 1.9198 14.1303 1.9618 14.3103C2.2018 15.4443 2.7358 16.4823 3.4558 17.3643C4.4458 18.7143 5.8378 19.9323 7.4758 20.7603C7.5658 20.8083 7.6618 20.8503 7.7518 20.8983C7.8898 20.9643 8.0278 21.0243 8.1718 21.0843C8.3998 21.1863 8.62781 21.2703 8.86181 21.3483C8.90981 21.3663 8.96381 21.3843 9.01181 21.4023C9.29381 21.4923 9.57581 21.5703 9.85781 21.6303C9.89381 21.6423 9.92981 21.6483 9.96581 21.6603C10.2598 21.7203 10.5478 21.7683 10.8418 21.8043C10.8838 21.8043 10.9318 21.8163 10.9738 21.8223C11.3098 21.8583 11.6458 21.8763 11.9818 21.8763H11.9878C12.0178 21.8763 12.0478 21.8703 12.0718 21.8703C12.3658 21.8703 12.6598 21.8523 12.9538 21.8223C13.0798 21.8103 13.1998 21.7863 13.3258 21.7683C13.5178 21.7443 13.7158 21.7143 13.9138 21.6723C14.0578 21.6423 14.1958 21.6063 14.3398 21.5703C14.4958 21.5343 14.6578 21.4923 14.8198 21.4383C15.0058 21.3843 15.1918 21.3183 15.3778 21.2463C15.4618 21.2163 15.5398 21.1923 15.6178 21.1563C17.5438 20.3943 19.1878 19.0923 20.3458 17.5983L20.4898 17.4603C22.0318 15.6963 22.8118 12.8403 21.6178 10.5303ZM14.3878 9.09035C14.8978 9.09035 15.3118 9.50435 15.3118 10.0143C15.3118 10.5243 14.8978 10.9383 14.3878 10.9383C13.8778 10.9383 13.4638 10.5243 13.4638 10.0143C13.4638 9.50435 13.8778 9.09035 14.3878 9.09035ZM9.55781 10.9383C9.04781 10.9383 8.63381 10.5243 8.63381 10.0143C8.63381 9.50435 9.04781 9.09035 9.55781 9.09035C10.0678 9.09035 10.4818 9.50435 10.4818 10.0143C10.4818 10.5243 10.0678 10.9383 9.55781 10.9383ZM13.7758 17.4183C13.7758 18.4143 12.9658 19.2183 11.9698 19.2183C10.9798 19.2183 10.1698 18.4143 10.1698 17.4183V15.8103C10.1878 15.8103 10.2118 15.8163 10.2298 15.8163C11.0578 15.8163 11.7478 15.2523 11.9578 14.4963C11.8138 14.4903 11.6758 14.4303 11.5738 14.3103L10.5238 13.0623C10.3018 12.7923 10.4098 12.4203 10.6798 12.2763C10.7518 12.2343 10.8298 12.2103 10.9258 12.2103H13.0198C13.1158 12.2103 13.1938 12.2343 13.2658 12.2763C13.5358 12.4203 13.6438 12.7923 13.4218 13.0623L12.3718 14.3103C12.2698 14.4303 12.1318 14.4903 11.9878 14.4963C12.1978 15.2523 12.8878 15.8163 13.7158 15.8163C13.7338 15.8163 13.7578 15.8103 13.7758 15.8103V17.4183Z" fill="#FFB72D"/>
<path d="M10.5258 13.0626L11.5746 14.313C11.6748 14.4324 11.8158 14.4912 11.9574 14.4954C11.9676 14.4954 11.9766 14.4954 11.9868 14.4954C12.129 14.4912 12.2694 14.4324 12.3696 14.313L13.4184 13.0626C13.6434 12.795 13.536 12.4194 13.263 12.2742C13.1916 12.2364 13.1118 12.21 13.0206 12.21H10.9224C10.8312 12.21 10.7514 12.2358 10.68 12.2742C10.4076 12.42 10.3002 12.795 10.5246 13.0626H10.5258Z" fill="black"/>
<path d="M9.55546 10.9381C10.0661 10.9381 10.4801 10.5241 10.4801 10.0135C10.4801 9.50282 10.0661 9.08887 9.55546 9.08887C9.04482 9.08887 8.63086 9.50282 8.63086 10.0135C8.63086 10.5241 9.04482 10.9381 9.55546 10.9381Z" fill="black"/>
<path d="M14.3885 10.9381C14.8991 10.9381 15.3131 10.5241 15.3131 10.0135C15.3131 9.50282 14.8991 9.08887 14.3885 9.08887C13.8778 9.08887 13.4639 9.50282 13.4639 10.0135C13.4639 10.5241 13.8778 10.9381 14.3885 10.9381Z" fill="black"/>
</g>
<defs>
<clipPath id="clip0_5346_11341">
<rect width="24" height="24" fill="white"/>
</clipPath>
</defs>
</svg>
