<svg width="24" height="24" viewBox="0 0 24 24" fill="none" xmlns="http://www.w3.org/2000/svg">
<g clip-path="url(#clip0_5292_11454)">
<path d="M19.4107 18.4602L21.0931 9.42655C21.1675 9.02695 20.7421 8.72095 20.3869 8.91955L17.3893 10.5954C16.5523 11.0634 15.4957 10.7928 14.9863 9.98035L12.4075 5.86855C12.2191 5.56855 11.7823 5.56855 11.5945 5.86855L9.01575 9.98035C8.50635 10.7928 7.44975 11.0628 6.61275 10.5954L3.61515 8.91955C3.25995 8.72095 2.83455 9.02635 2.90895 9.42655L4.59135 18.4602" fill="#FFCD00"/>
<path d="M18.461 21.31H5.54062C4.97062 21.31 4.59082 20.9302 4.59082 20.3602V18.46H19.4108V20.3602C19.4108 20.8354 19.031 21.31 18.461 21.31Z" fill="#FFAD00"/>
<path d="M12.0003 5.64312C12.8396 5.64312 13.5201 4.96268 13.5201 4.12332C13.5201 3.28395 12.8396 2.60352 12.0003 2.60352C11.1609 2.60352 10.4805 3.28395 10.4805 4.12332C10.4805 4.96268 11.1609 5.64312 12.0003 5.64312Z" fill="#FFAD00"/>
<path d="M21.8811 9.3394C22.7205 9.3394 23.4009 8.65897 23.4009 7.8196C23.4009 6.98024 22.7205 6.2998 21.8811 6.2998C21.0418 6.2998 20.3613 6.98024 20.3613 7.8196C20.3613 8.65897 21.0418 9.3394 21.8811 9.3394Z" fill="#FFAD00"/>
<path d="M2.12039 9.3394C2.95975 9.3394 3.64019 8.65897 3.64019 7.8196C3.64019 6.98024 2.95975 6.2998 2.12039 6.2998C1.28102 6.2998 0.600586 6.98024 0.600586 7.8196C0.600586 8.65897 1.28102 9.3394 2.12039 9.3394Z" fill="#FFAD00"/>
</g>
<defs>
<clipPath id="clip0_5292_11454">
<rect width="24" height="24" fill="white"/>
</clipPath>
</defs>
</svg>
