<svg width="24" height="24" viewBox="0 0 24 24" fill="none" xmlns="http://www.w3.org/2000/svg">
<g clip-path="url(#clip0_5292_11541)">
<path d="M15.4627 3.70525L3.06445 16.1035L7.76657 20.8056L20.1648 8.40737L15.4627 3.70525Z" fill="#FFAA00"/>
<path fill-rule="evenodd" clip-rule="evenodd" d="M22.1074 6.46704L20.167 8.40804L15.4648 3.70524L17.4052 1.76484C17.9302 1.23984 18.781 1.23984 19.3054 1.76484L22.1074 4.56684C22.6324 5.09184 22.6324 5.94204 22.1074 6.46704Z" fill="#FF9000"/>
<path fill-rule="evenodd" clip-rule="evenodd" d="M1.97714 22.3571L4.27514 21.7415L2.12894 19.5947L1.51334 21.8933C1.43774 22.1747 1.69574 22.4321 1.97714 22.3571Z" fill="#313D4C"/>
<path fill-rule="evenodd" clip-rule="evenodd" d="M2.12891 19.5949L4.27451 21.7417L7.76711 20.8057L3.06491 16.1035L2.12891 19.5949Z" fill="#FFCCA8"/>
</g>
<defs>
<clipPath id="clip0_5292_11541">
<rect width="24" height="24" fill="white"/>
</clipPath>
</defs>
</svg>
