<svg width="20" height="20" viewBox="0 0 20 20" fill="none" xmlns="http://www.w3.org/2000/svg">
<path fill-rule="evenodd" clip-rule="evenodd" d="M10.0322 3.32519C9.83104 3.32519 9.65018 3.44791 9.57584 3.63488L7.0865 9.89533V16.6712H15.0889C15.2995 16.6712 15.4161 16.6707 15.5014 16.6643C15.5277 16.6623 15.5443 16.6601 15.5535 16.6586C15.5603 16.6544 15.5664 16.6493 15.5717 16.6433C15.5747 16.6345 15.5797 16.6185 15.5862 16.5929C15.6071 16.51 15.6276 16.3952 15.6636 16.1877L16.53 11.2004C16.6256 10.6504 16.6883 10.2853 16.7124 10.0046C16.7359 9.73072 16.7134 9.61803 16.6912 9.55733C16.6172 9.35524 16.4745 9.18562 16.2881 9.07816C16.2321 9.04588 16.1249 9.00449 15.8511 8.98072C15.5703 8.95636 15.1999 8.9557 14.6417 8.9557H11.9401C11.934 8.9557 11.9279 8.9557 11.9217 8.9557C11.8215 8.95574 11.7062 8.95577 11.6053 8.94753C11.4895 8.93807 11.3283 8.9141 11.1604 8.82854C10.9409 8.71669 10.7624 8.53821 10.6506 8.31869C10.5651 8.151 10.5411 7.99013 10.5316 7.87418C10.5233 7.77341 10.5234 7.65834 10.5234 7.55847C10.5234 7.55227 10.5234 7.54613 10.5234 7.54006V3.81514C10.5234 3.54484 10.3045 3.32519 10.0322 3.32519ZM10.0322 1.8252C11.131 1.8252 12.0234 2.7145 12.0234 3.81514V7.4557L14.674 7.4557C15.1913 7.45569 15.6274 7.45568 15.9808 7.48635C16.3484 7.51825 16.7068 7.58818 17.0371 7.77856C17.5286 8.06185 17.9048 8.50904 18.0998 9.04181C18.2309 9.39985 18.2384 9.76495 18.2069 10.1326C18.1766 10.486 18.102 10.9156 18.0134 11.4252L17.1377 16.4661C17.1069 16.6438 17.0771 16.8155 17.0406 16.9599C17.0003 17.1194 16.9403 17.2975 16.8237 17.4709C16.6579 17.7176 16.4261 17.9127 16.1546 18.0338C15.9638 18.1189 15.7781 18.1476 15.6141 18.16C15.4655 18.1712 15.2912 18.1712 15.1109 18.1712L3.17169 18.1712C3.07149 18.1712 2.95624 18.1712 2.85538 18.163C2.73952 18.1535 2.57838 18.1296 2.41046 18.044C2.19094 17.9322 2.01246 17.7537 1.90061 17.5342C1.81505 17.3662 1.79109 17.2051 1.78162 17.0892C1.77338 16.9884 1.77342 16.8731 1.77345 16.7729L1.77345 10.4184C1.77345 10.4123 1.77344 10.4061 1.77344 10.3999C1.77341 10.2997 1.77337 10.1845 1.78161 10.0836C1.79108 9.96776 1.81505 9.80662 1.9006 9.6387C2.01246 9.41918 2.19093 9.2407 2.41045 9.12885C2.57837 9.04329 2.73951 9.01933 2.85537 9.00986C2.95623 9.00162 3.07149 9.00166 3.17169 9.00169C3.17789 9.00169 3.18403 9.00169 3.19011 9.00169H5.82761L8.18199 3.08064C8.48337 2.32269 9.21656 1.8252 10.0322 1.8252ZM5.58651 10.5017H3.27344L3.27345 16.6712H5.58651V10.5017Z" fill="#C2C4C8"/>
</svg>
